<svg id="Layer_1" data-name="Layer 1" xmlns="http://www.w3.org/2000/svg" viewBox="0 0 292.78 104.44"><defs><style>.cls-1,.cls-5{fill:#e09304;}.cls-2,.cls-3,.cls-4,.cls-5{isolation:isolate;}.cls-3,.cls-4,.cls-5{font-size:36px;}.cls-3,.cls-4{font-family:TrebuchetMS-Bold, Trebuchet MS;font-weight:700;}.cls-3{letter-spacing:-0.05em;}.cls-5{font-family:TrebuchetMS, Trebuchet MS;}</style></defs><title>navbar-logo</title><rect width="92.36" height="104.44"/><g id="Layer_2-2" data-name="Layer 2-2"><path class="cls-1" d="M319.21,151.06v-.14l.06.24A.21.21,0,0,1,319.21,151.06Z" transform="translate(-281.25 -114.47)"/><path class="cls-1" d="M324.4,180.84l-.17-.05h0Z" transform="translate(-281.25 -114.47)"/><path class="cls-1" d="M324,181.7c.07-.3.13-.61.21-.91a.2.2,0,0,0,0,.11A7.23,7.23,0,0,0,324,181.7Z" transform="translate(-281.25 -114.47)"/><path class="cls-1" d="M324.23,180.77l.17.07-.17-.05Z" transform="translate(-281.25 -114.47)"/><path class="cls-1" d="M369.79,155.93a12.28,12.28,0,0,0-3.94-2.54,28,28,0,0,0-10-2.46A25.58,25.58,0,0,0,344,153c-.32.16-1.42.73-2.75,1.57a33.41,33.41,0,0,0-3,2.15l-.33.28c-.31.26-.61.54-.92.82-.57.53-1.14,1.09-1.7,1.69a1.79,1.79,0,0,0-.23.25c-.13.13-.25.26-.37.4l-.36.4c-.52.6-1,1.23-1.55,1.88-.94-.52-1.84-1.07-2.68-1.63l-.37-.25h-.07c.38-.39.92-.94,1.55-1.63a24.54,24.54,0,0,0,2.36-2.81,18.54,18.54,0,0,0,2.28-4.64l.08-.3a2.08,2.08,0,0,1,.11-.41v-.32c.08-.34.16-.68.23-1a.66.66,0,0,1,.08-.38c.07-.39.14-.78.2-1.18,0-.18.06-.36.08-.55v-.17a5.15,5.15,0,0,1,.07-.53.48.48,0,0,1,0-.17v-.71c0-.35.06-.72.07-1.08v-3.41h0v-.75a2.39,2.39,0,0,0-.05-.59c-.06-.66-.14-1.3-.25-1.93V138c-1-7.24-4.63-12.47-8.88-12.47s-7.84,5.23-9,12.43V138c-.1.63-.18,1.27-.24,1.93s-.1,1.19-.12,1.8V143a34.13,34.13,0,0,0,.55,5.88c.06.35.15.78.28,1.29a1.74,1.74,0,0,0,.07.29v.1h0a.57.57,0,0,0,.07.28V151a1.13,1.13,0,0,0,.07.28l.06.18a1309666447919.73,1309666447919.73,0,0,0,.16.52,4.86,4.86,0,0,0,.18.55c.1.29.18.49.25.66s.13.35.21.54l.17.37a22.6,22.6,0,0,0,3.31,4.53c.44.48,1.06,1.12,1.84,1.84h-.07c-.94.64-1.93,1.26-3,1.85-.49-.64-1-1.26-1.52-1.85-.86-1-1.77-1.91-2.72-2.79a31.88,31.88,0,0,0-2.72-2.2h0a21.3,21.3,0,0,0-4.33-2.46h0c-.65-.26-1.34-.49-2.06-.7h0a30.16,30.16,0,0,0-8.39-1.14,27.8,27.8,0,0,0-11.42,2.23,14,14,0,0,0-4,2.61,6.38,6.38,0,0,0-2.13,4.54c0,4.2,5.11,7.75,12.17,9,.9.15,1.84.27,2.79.35s1.71.1,2.58.1h.46a23.56,23.56,0,0,0,3.36-.06l3-.37a45.13,45.13,0,0,0,7.88-1.52c1.35-.41,2.81-1,2.81-1,1.1-.41,2.16-.86,3.19-1.34.61.89,1.21,1.82,1.78,2.78l2.41-1.49c-.53-.89-1.08-1.75-1.65-2.57a38.94,38.94,0,0,0,3.67-2.31h0a34,34,0,0,0,3.77,2.35,49.06,49.06,0,0,0-2.61,4.26l-.37.69-.24.55c-.15.29-.29.58-.43.87v0c-.47,1-.89,1.93-1.27,2.89-.08.2-.15.4-.23.59a38.34,38.34,0,0,0-1.85,6.37l.17.07-.17-.05a.2.2,0,0,0,0,.11c-.07.26-.13.53-.19.8a39.77,39.77,0,0,0-.76,7.13v.63c0,1,0,2.09.09,3.16a.06.06,0,0,0,0,.06,5,5,0,0,0,.07,1,6.2,6.2,0,0,0,.06.62l2.85-.11v-.91a7.92,7.92,0,0,0-.07-1,10.6,10.6,0,0,1-.07-1.2v-3.57c0-.49.06-1.12.14-2v-.08a12,12,0,0,1,.17-1.48l.06-.4.09-.62v-.06a1,1,0,0,1,0-.24h0v-.14h0v-.14l.06-.33h0c0-.07.05-.14.07-.21v-.19a.24.24,0,0,1,0-.12,2,2,0,0,1,.05-.24v-.06a2.82,2.82,0,0,1,.14-.61c.05-.21.06-.26.1-.39.12-.47.25-1,.4-1.44a.08.08,0,0,1,0-.07,41.25,41.25,0,0,1,1.52-4.29c.08-.2.16-.39.25-.59l.22-.49.24-.54c.25-.53.51-1.07.79-1.61.06-.13.13-.26.2-.38s.24-.47.37-.7a.14.14,0,0,1,0-.09l.31-.56h0l.31-.54c.12-.19.23-.39.35-.59s.2-.32.29-.48l.1-.15.44-.7a2.14,2.14,0,0,1,.13-.19c.22-.35.45-.68.68-1,.47.22.94.43,1.43.63l.42.18.36.15.44.17.31.12H337l.14.06.32.11,1,.35.46.15.69.22a42.67,42.67,0,0,0,13.7,2h1.11a20.64,20.64,0,0,0,2.62-.11,26.44,26.44,0,0,0,2.8-.35c7-1.23,12.12-4.77,12.12-9A6.47,6.47,0,0,0,369.79,155.93Zm-51.63,8.57c-.84.36-1.7.69-2.59,1-.63.22-1.27.44-1.93.64A44.06,44.06,0,0,1,297.71,168a6.27,6.27,0,0,1-1.14-.14,3.32,3.32,0,0,1-.7-.13l-.37-.11-.5-.14c-4.33-1-7.51-3.18-8.21-5.78h0a3.9,3.9,0,0,1-.14-1.08v-.3c.15-2,1.76-3.8,4.27-5.1a21.64,21.64,0,0,1,9.7-2.1h1.3a16.33,16.33,0,0,1,2,.18h0a20.93,20.93,0,0,1,5.38,1.41h0a12.53,12.53,0,0,1,2.8,1.6h0l.47.33.28.2.36.26h0l.36.28.38.3a33.79,33.79,0,0,1,3.12,2.86c.31.32.62.66.92,1l.1.11c.58.65,1.15,1.33,1.71,2A8.43,8.43,0,0,1,318.16,164.5Zm11.11-7.06-.16.15-.16.15-.17.15-.16.15-.34.3-.2.16-.1.09h0l-.33.28h0l-.57-.37-.24-.21-.24-.21-.28-.25-.33-.31-.15-.14-.14-.14-.19-.18h0c-.12-.11-.23-.22-.34-.34l-.44-.47-.32-.36-.33-.39h0l-.18-.22-.22-.27-.27-.36-.33-.46c-.05-.06-.09-.13-.14-.2h0l-.42-.67-.2-.35-.53-1c-.21-.6-.69-1.93-.71-2s-.22-.86-.27-1.07a18.92,18.92,0,0,1-.54-3.17,22,22,0,0,1-.19-2.69v-2.53a.74.74,0,0,1,0-.21.06.06,0,0,1,0-.06v-.33c.08-.62.18-1.23.3-1.81v-.17a2.08,2.08,0,0,1,.11-.48l.12-.47.12-.47a1.28,1.28,0,0,1,.11-.35l.09-.29.12-.37a.89.89,0,0,1,.11-.31l.16-.43a3.34,3.34,0,0,1,.16-.38c.13-.32.28-.63.43-.92,0-.08.08-.16.12-.24v-.07l.18-.31a3,3,0,0,1,.2-.34,1.85,1.85,0,0,1,.21-.33h0l.46-.32.22-.3.12-.15.12-.14.23-.27a6.82,6.82,0,0,1,.78-.74l.09-.08.23-.18.14-.09q.27-.18.54-.33l.14-.07h.12a3.66,3.66,0,0,1,.46-.18l.27-.08.44-.09h.6a3.84,3.84,0,0,1,.48,0h.25c.19,0,.39.09.58.15H329a5.62,5.62,0,0,1,1.08.58l.09.06c.19.14.38.28.56.44l.13.12.12.11.24.25.12.13.12.13c.12.14.24.28.35.43l.16.21.14.19.14.22a1.85,1.85,0,0,1,.21.33l.21.34.2.36c.06.12.13.24.19.37l.15.31.21.47.16.4h0l.15.41c0,.1.08.2.11.3l.2.6.12.43c.09.31.17.62.25.94a2.73,2.73,0,0,0,.1.48V138c.12.59.22,1.2.3,1.82V143a25.57,25.57,0,0,1-.15,2.77,4.41,4.41,0,0,1-.09.73c0,.24-.06.47-.1.7l-.09.45v.27a.6.6,0,0,1-.07.34c-.07.11,0,.2-.07.31h0a.24.24,0,0,1-.05.17v.13h0a.51.51,0,0,1-.08.33l-.09.32v.1a.81.81,0,0,1-.07.22l-.12.39a1.54,1.54,0,0,1-.17.48l-.09.25v.11l-.09.23-.12.28c-.15.37-.32.73-.5,1.08l-.14.25-.08.15c0,.08-.09.16-.14.24l-.07.12-.12.2-.06.09-.2.3h0a2.48,2.48,0,0,1-.19.26v.07l-.15.2-.28.33h0c-.09.13-.2.25-.3.38l-.3.36-.31.36-.38.42-.15.15-.14.16-.3.3Zm39.13,3.14v1.12l-.06.27-.06.22-.06.23-.14.08h0c-1.1,2.21-4,4-7.85,4.92v.08c-.9.19-1.8.33-2.7.43h-2a42.38,42.38,0,0,1-14.1-2c-.63-.19-1.24-.39-1.85-.61l-.8-.29-.42-.15-.42-.17-.28-.11h-.12l-.45-.1H337c-.57-.24-1.12-.49-1.67-.74l.42-.52.41-.51.42-.49c.07-.08.13-.16.2-.23l.22-.26.11-.12c.32-.36.65-.71,1-1,.1-.09.19-.19.28-.28l.24-.24.52-.51.13-.12.12-.12.35-.32.24-.21.24-.22h0l.33-.29.22-.18h0l.17-.14.31-.25.35-.28.36-.27.35-.26.36-.25a14.32,14.32,0,0,1,2.48-1.59,16.33,16.33,0,0,1,4.09-1.39c.81-.18,1.5-.28,1.81-.32.49-.06,1.25-.15,2.19-.2h1.29c7.07,0,12.92,2.82,13.85,6.48v.89A.16.16,0,0,0,368.4,160.58Z" transform="translate(-281.25 -114.47)"/><path class="cls-1" d="M323.48,194.26l2.85-.11h0l-2.85.12Z" transform="translate(-281.25 -114.47)"/><path class="cls-1" d="M326.62,182.59v0Z" transform="translate(-281.25 -114.47)"/><path class="cls-1" d="M326.8,181.74v.42a.55.55,0,0,1-.06.27v-.14l.06-.33h0Z" transform="translate(-281.25 -114.47)"/><g class="cls-2"><text class="cls-3" transform="translate(93.36 56.01)">W</text><text class="cls-4" transform="translate(123.23 56.01)">AJO</text><text class="cls-5" transform="translate(190.51 56.01)">design</text></g></g></svg>